<svg width="170" height="127" viewBox="0 0 170 127" fill="none" xmlns="http://www.w3.org/2000/svg">
<path d="M66.6688 0.459993L108.951 109.384C110.575 113.56 112.373 116.46 114.345 118.084C116.433 119.592 118.289 120.404 119.913 120.52V124C116.433 123.768 112.315 123.652 107.559 123.652C102.919 123.536 98.2208 123.478 93.4648 123.478C88.1288 123.478 83.0828 123.536 78.3268 123.652C73.5708 123.652 69.8008 123.768 67.0168 124V120.52C72.9328 120.288 76.6448 119.302 78.1528 117.562C79.7768 115.706 79.4288 111.82 77.1088 105.904L47.5288 24.994L50.6608 20.47L24.2128 89.374C21.6608 95.754 20.0948 100.974 19.5148 105.034C19.0508 109.094 19.3408 112.226 20.3848 114.43C21.5448 116.634 23.3428 118.2 25.7788 119.128C28.3308 119.94 31.3468 120.404 34.8268 120.52V124C30.9988 123.768 27.3448 123.652 23.8648 123.652C20.3848 123.536 16.8468 123.478 13.2508 123.478C10.6988 123.478 8.2628 123.536 5.9428 123.652C3.7388 123.652 1.7668 123.768 0.0267949 124V120.52C2.4628 120.056 4.9568 118.49 7.5088 115.822C10.0608 113.154 12.5548 108.63 14.9908 102.25L54.6628 0.459993C56.5188 0.575992 58.4908 0.633991 60.5788 0.633991C62.7828 0.633991 64.8128 0.575992 66.6688 0.459993ZM78.8488 73.888V77.368H26.9968L28.7368 73.888H78.8488Z" fill="#5A4435" fill-opacity="0.9"/>
<path d="M154.955 99.64C159.479 99.64 163.075 100.858 165.743 103.294C168.411 105.614 169.745 108.862 169.745 113.038C169.745 117.214 168.411 120.52 165.743 122.956C163.075 125.276 159.479 126.436 154.955 126.436C150.431 126.436 146.835 125.276 144.167 122.956C141.499 120.52 140.165 117.214 140.165 113.038C140.165 108.862 141.499 105.614 144.167 103.294C146.835 100.858 150.431 99.64 154.955 99.64Z" fill="#CEAB9B"/>
</svg>
