<svg width="31" height="51" viewBox="0 0 31 51" fill="none" xmlns="http://www.w3.org/2000/svg">
<path opacity="0.8" d="M24.74 0.744996V41.975C24.74 44.6983 25.1833 46.5667 26.07 47.58C27.02 48.53 28.6033 49.005 30.82 49.005V51C29.5533 50.9367 27.685 50.8733 25.215 50.81C22.8083 50.6833 20.3067 50.62 17.71 50.62C14.3533 50.62 11.1233 50.6833 8.02 50.81C4.91667 50.8733 2.51 50.9367 0.8 51V49.005C3.52333 49.005 5.61333 48.4983 7.07 47.485C8.59 46.4083 9.35 44.3183 9.35 41.215V17.94C9.35 14.9 9.09667 12.6517 8.59 11.195C8.08333 9.73833 7.19667 8.78833 5.93 8.345C4.66333 7.90166 2.89 7.68 0.61 7.68V5.59C6.37333 5.46333 11.1233 5.05166 14.86 4.355C18.5967 3.65833 21.89 2.455 24.74 0.744996Z" fill="white"/>
</svg>
