<svg width="45" height="52" viewBox="0 0 45 52" fill="none" xmlns="http://www.w3.org/2000/svg">
<path opacity="0.8" d="M24.075 0.46C29.1417 0.46 33.1317 1.505 36.045 3.595C39.0217 5.685 40.51 8.66166 40.51 12.525C40.51 14.995 39.8767 17.2117 38.61 19.175C37.3433 21.1383 35.665 22.975 33.575 24.685C31.5483 26.395 29.3633 28.01 27.02 29.53C24.6767 30.9867 22.3967 32.4433 20.18 33.9C17.9633 35.3567 16.0633 36.845 14.48 38.365H35.475C38.0717 38.365 39.7183 38.08 40.415 37.51C41.1117 36.8767 41.5867 35.8 41.84 34.28H43.93C43.93 38.7767 43.9617 42.2917 44.025 44.825C44.0883 47.3583 44.1833 49.575 44.31 51.475C43.74 51.3483 42.695 51.2533 41.175 51.19C39.655 51.1267 37.9133 51.0633 35.95 51C33.9867 51 32.055 51 30.155 51H0.705V49.1C2.47833 47.3267 4.63167 45.3317 7.165 43.115C9.76167 40.835 12.295 38.3017 14.765 35.515C17.2983 32.7283 19.42 29.72 21.13 26.49C22.84 23.26 23.695 19.7767 23.695 16.04C23.695 12.7467 22.9667 10.34 21.51 8.82C20.0533 7.3 17.9 6.54 15.05 6.54C12.3267 6.54 9.92 7.14166 7.83 8.345C5.80333 9.485 3.96667 11.1633 2.32 13.38L0.705 12.335C2.09833 10.1183 3.80833 8.12333 5.835 6.35C7.86167 4.51333 10.3633 3.08833 13.34 2.075C16.3167 0.998332 19.895 0.46 24.075 0.46Z" fill="white"/>
</svg>
