<svg width="43" height="66" viewBox="0 0 43 66" fill="none" xmlns="http://www.w3.org/2000/svg">
<path opacity="0.8" d="M22.035 0.46C25.265 0.46 28.1783 0.903333 30.775 1.79C33.3717 2.67667 35.3983 3.94333 36.855 5.59C38.375 7.17333 39.135 9.105 39.135 11.385C39.135 13.7917 38.3117 16.04 36.665 18.13C35.0183 20.22 32.6117 22.0567 29.445 23.64C26.3417 25.2233 22.5733 26.3633 18.14 27.06C22.89 26.87 27.1017 27.3133 30.775 28.39C34.4483 29.4033 37.33 31.05 39.42 33.33C41.51 35.5467 42.555 38.3017 42.555 41.595C42.555 44.5083 41.7317 47.2 40.085 49.67C38.4383 52.14 36.19 54.325 33.34 56.225C30.5533 58.1883 27.355 59.835 23.745 61.165C20.135 62.5583 16.335 63.6033 12.345 64.3C8.41833 64.9967 4.49167 65.345 0.565 65.345V63.445C3.415 63.3183 6.36 62.78 9.4 61.83C12.44 60.88 15.2583 59.4867 17.855 57.65C20.515 55.8133 22.6367 53.565 24.22 50.905C25.8667 48.245 26.69 45.1733 26.69 41.69C26.69 37.9533 25.8033 34.9133 24.03 32.57C22.2567 30.1633 19.8183 28.8333 16.715 28.58C15.765 28.96 14.8783 29.3083 14.055 29.625C13.295 29.9417 12.5033 30.1 11.68 30.1C11.11 30.1 10.6667 30.005 10.35 29.815C10.0333 29.625 9.875 29.245 9.875 28.675C9.875 27.915 10.1917 27.3767 10.825 27.06C11.4583 26.7433 12.2183 26.585 13.105 26.585C13.6117 26.585 14.1183 26.6167 14.625 26.68C15.195 26.7433 15.7967 26.8067 16.43 26.87C19.1533 24.97 21.0533 22.975 22.13 20.885C23.2067 18.7317 23.745 16.5783 23.745 14.425C23.745 11.6383 22.985 9.58 21.465 8.25C19.945 6.85666 17.855 6.16 15.195 6.16C12.7883 6.16 10.4767 6.76166 8.26 7.965C6.10667 9.105 4.30167 10.8467 2.845 13.19L1.23 12.335C2.43333 10.245 3.89 8.31333 5.6 6.54C7.37333 4.70333 9.59 3.24667 12.25 2.17C14.91 1.03 18.1717 0.46 22.035 0.46Z" fill="white"/>
</svg>
