<svg width="49" height="65" viewBox="0 0 49 65" fill="none" xmlns="http://www.w3.org/2000/svg">
<path opacity="0.8" d="M37.43 0.46L37.81 2.93L7.22 41.025L8.93 37.225H39.615C42.2117 37.225 43.8583 36.94 44.555 36.37C45.2517 35.7367 45.7267 34.66 45.98 33.14H48.07C48.07 37.1933 48.1017 40.36 48.165 42.64C48.2283 44.8567 48.3233 46.8517 48.45 48.625C48.0067 48.4983 47.12 48.435 45.79 48.435C44.5233 48.3717 43.035 48.3083 41.325 48.245C39.615 48.1817 37.8733 48.15 36.1 48.15C34.3267 48.15 32.7117 48.15 31.255 48.15H0.475V46.155L37.43 0.46ZM38.95 0.46V64.395H26.79V14.995L37.43 0.46H38.95Z" fill="white"/>
</svg>
