<svg width="41" height="68" viewBox="0 0 41 68" fill="none" xmlns="http://www.w3.org/2000/svg">
<path opacity="0.8" d="M36.19 0.559996C36.19 4.93 36.2217 8.35 36.285 10.82C36.3483 13.2267 36.4433 15.3483 36.57 17.185C36.0633 17.0583 35.0817 16.9633 33.625 16.9C32.2317 16.8367 30.6167 16.805 28.78 16.805C26.9433 16.7417 25.1383 16.71 23.365 16.71H7.215L5.505 32.29C7.15167 31.15 9.24167 30.2 11.775 29.44C14.3717 28.6167 17.4433 28.205 20.99 28.205C25.36 28.205 28.9383 28.87 31.725 30.2C34.575 31.53 36.665 33.3667 37.995 35.71C39.3883 37.99 40.085 40.5233 40.085 43.31C40.085 46.9833 38.9133 50.2767 36.57 53.19C34.29 56.1033 31.2183 58.605 27.355 60.695C23.4917 62.785 19.2167 64.3683 14.53 65.445C9.84333 66.5217 5.125 67.06 0.375 67.06V65.35C3.35167 65.35 6.265 64.8433 9.115 63.83C11.965 62.88 14.53 61.4867 16.81 59.65C19.09 57.8767 20.895 55.66 22.225 53C23.555 50.34 24.22 47.2683 24.22 43.785C24.22 39.8583 23.3333 36.85 21.56 34.76C19.7867 32.6067 17.1583 31.53 13.675 31.53C11.775 31.53 10.1283 31.815 8.735 32.385C7.405 32.955 6.10667 33.715 4.84 34.665L3.415 33.715L6.835 3.505C7.53167 3.63166 8.32333 3.72666 9.21 3.79C10.16 3.85333 11.0783 3.885 11.965 3.885H29.255C30.9017 3.885 32.0733 3.63166 32.77 3.125C33.4667 2.61833 33.91 1.76333 34.1 0.559996H36.19Z" fill="white"/>
</svg>
