<svg width="49" height="71" viewBox="0 0 49 71" fill="none" xmlns="http://www.w3.org/2000/svg">
<path opacity="0.8" d="M40.08 0.314995L40.46 2.215C38.1167 2.975 35.7733 3.925 33.43 5.065C31.15 6.14166 28.965 7.63 26.875 9.53C24.785 11.3667 22.9483 13.7733 21.365 16.75C19.7817 19.7267 18.5467 23.4317 17.66 27.865C16.7733 32.2983 16.33 37.6817 16.33 44.015C16.33 50.1583 16.7417 55.035 17.565 58.645C18.3883 62.1917 19.4333 64.725 20.7 66.245C21.9667 67.7017 23.2333 68.43 24.5 68.43C25.83 68.43 27.065 67.765 28.205 66.435C29.345 65.105 30.2633 62.9833 30.96 60.07C31.72 57.0933 32.1 53.23 32.1 48.48C32.1 43.92 31.7517 40.2783 31.055 37.555C30.4217 34.8317 29.535 32.8683 28.395 31.665C27.3183 30.4617 26.0833 29.86 24.69 29.86C23.74 29.86 22.6317 30.1767 21.365 30.81C20.1617 31.4433 19.0217 32.4567 17.945 33.85C16.9317 35.2433 16.2033 37.1433 15.76 39.55L14.81 38.885C15.2533 35.9717 16.1717 33.66 17.565 31.95C18.9583 30.24 20.6367 29.005 22.6 28.245C24.6267 27.485 26.7483 27.105 28.965 27.105C32.5117 27.105 35.71 27.9283 38.56 29.575C41.4733 31.2217 43.785 33.5967 45.495 36.7C47.2683 39.74 48.155 43.3817 48.155 47.625C48.155 52.5017 47.015 56.65 44.735 60.07C42.455 63.4267 39.4467 65.9917 35.71 67.765C31.9733 69.475 27.8883 70.33 23.455 70.33C16.235 70.33 10.5667 67.9867 6.45 63.3C2.33333 58.55 0.275 51.8683 0.275 43.255C0.275 37.555 1.13 32.4883 2.84 28.055C4.55 23.6217 6.83 19.79 9.68 16.56C12.53 13.2667 15.6967 10.5117 19.18 8.29499C22.6633 6.07833 26.21 4.33666 29.82 3.07C33.4933 1.74 36.9133 0.821663 40.08 0.314995Z" fill="white"/>
</svg>
