<svg width="43" height="65" viewBox="0 0 43 65" fill="none" xmlns="http://www.w3.org/2000/svg">
<path opacity="0.8" d="M0.0900002 0.409999C0.66 0.536664 1.705 0.631662 3.225 0.694995C4.745 0.758331 6.48667 0.821666 8.45 0.884998C10.4133 0.884998 12.345 0.884998 14.245 0.884998H42.935V2.88C41.7317 5.60333 40.18 8.58 38.28 11.81C36.4433 15.04 34.575 18.555 32.675 22.355C30.775 26.155 29.1917 30.24 27.925 34.61C26.7217 38.98 26.12 43.6667 26.12 48.67C26.12 48.86 26.1517 49.4617 26.215 50.475C26.3417 51.5517 26.4367 52.66 26.5 53.8C26.5633 54.94 26.595 55.795 26.595 56.365C26.595 58.265 25.9617 60.0067 24.695 61.59C23.4283 63.2367 21.465 64.06 18.805 64.06C16.145 64.06 14.1817 63.1733 12.915 61.4C11.6483 59.69 11.015 57.4733 11.015 54.75C11.015 51.4567 11.6483 48.195 12.915 44.965C14.245 41.735 15.9867 38.5367 18.14 35.37C20.2933 32.2033 22.5733 29.1 24.98 26.06C27.3867 23.02 29.73 20.1383 32.01 17.415C34.3533 14.6283 36.3167 12.0633 37.9 9.72L36 13.615H8.925C6.32833 13.615 4.68167 13.9317 3.985 14.565C3.28833 15.135 2.81333 16.18 2.56 17.7H0.47C0.47 13.2033 0.438333 9.68833 0.375 7.155C0.311667 4.55833 0.216667 2.31 0.0900002 0.409999Z" fill="white"/>
</svg>
