<svg width="49" height="71" viewBox="0 0 49 71" fill="none" xmlns="http://www.w3.org/2000/svg">
<path opacity="0.8" d="M24.93 0.409994C28.8567 0.409994 32.2767 0.979994 35.19 2.11999C38.1667 3.26 40.4783 4.84333 42.125 6.87C43.7717 8.83333 44.595 11.145 44.595 13.805C44.595 17.035 43.3283 19.8217 40.795 22.165C38.325 24.5083 34.81 26.7567 30.25 28.91L29.49 27.58C30.25 26.3767 30.8517 24.9833 31.295 23.4C31.7383 21.8167 32.0233 20.2333 32.15 18.65C32.34 17.0033 32.435 15.61 32.435 14.47C32.435 10.5433 31.7067 7.50333 30.25 5.35C28.7933 3.19666 26.7983 2.11999 24.265 2.11999C22.3017 2.11999 20.7817 2.785 19.705 4.115C18.6917 5.445 18.185 7.155 18.185 9.245C18.185 11.8417 18.9133 14.3433 20.37 16.75C21.8267 19.0933 23.6633 21.3733 25.88 23.59C28.16 25.8067 30.5667 28.0233 33.1 30.24C35.6333 32.3933 38.0083 34.6417 40.225 36.985C42.505 39.265 44.3733 41.6717 45.83 44.205C47.2867 46.7383 48.015 49.4933 48.015 52.47C48.015 55.9533 46.97 59.025 44.88 61.685C42.79 64.345 39.9083 66.4667 36.235 68.05C32.625 69.57 28.4767 70.33 23.79 70.33C19.7367 70.33 15.9367 69.7283 12.39 68.525C8.90667 67.2583 6.08833 65.4217 3.935 63.015C1.845 60.545 0.8 57.5367 0.8 53.99C0.8 51.0133 1.52833 48.385 2.985 46.105C4.44167 43.825 6.405 41.8617 8.875 40.215C11.4083 38.505 14.2267 37.0167 17.33 35.75L18.09 37.08C16.4433 39.1067 15.3033 41.4817 14.67 44.205C14.0367 46.865 13.72 49.525 13.72 52.185C13.72 55.1617 14.0367 57.9167 14.67 60.45C15.3667 62.92 16.475 64.915 17.995 66.435C19.515 67.8917 21.605 68.62 24.265 68.62C27.2417 68.62 29.4583 67.7333 30.915 65.96C32.3717 64.1233 33.1 61.8433 33.1 59.12C33.1 56.2067 32.3717 53.5783 30.915 51.235C29.5217 48.8283 27.7167 46.5483 25.5 44.395C23.3467 42.2417 21.0033 40.12 18.47 38.03C16 35.94 13.6567 33.8183 11.44 31.665C9.28667 29.4483 7.48167 27.0733 6.025 24.54C4.63167 22.0067 3.935 19.1883 3.935 16.085C3.935 12.475 4.91667 9.53 6.88 7.25C8.90667 4.90666 11.5033 3.19666 14.67 2.11999C17.9 0.979994 21.32 0.409994 24.93 0.409994Z" fill="white"/>
</svg>
