<svg width="36" height="40" viewBox="0 0 36 40" fill="none" xmlns="http://www.w3.org/2000/svg">
<path d="M12.1569 39.9983C11.2692 39.8691 10.368 39.7959 9.49734 39.597C4.566 38.4713 0.712747 34.1861 0.097179 29.1783C-0.309773 25.9803 0.546084 22.7498 2.48294 20.1728C4.4198 17.5958 7.28504 15.8755 10.47 15.3773C11.7635 15.1503 13.0864 15.1469 14.3811 15.3671V21.9411C14.041 21.8765 13.7009 21.8033 13.3795 21.7557C10.1656 21.2881 7.10479 23.5361 6.68307 26.6735C6.23075 30.0404 8.47706 33.0043 11.7845 33.4498C12.6336 33.5532 13.4951 33.4727 14.3103 33.2138C15.1256 32.9549 15.8757 32.5236 16.5096 31.9492C17.1435 31.3748 17.6464 30.6708 17.9842 29.8849C18.322 29.099 18.4867 28.2497 18.4673 27.3945C18.4316 22.6502 18.4673 17.9059 18.4673 13.1599C18.4673 8.94954 18.4673 4.73919 18.4673 0.528844V0H24.929C25.0243 0.680185 25.0821 1.34507 25.2181 2.00315C25.6815 4.18722 26.8587 6.15491 28.5642 7.59587C30.2696 9.03683 32.4062 9.86906 34.637 9.96132C35.0349 9.97492 35.1352 10.0803 35.1301 10.4715C35.1097 12.3216 35.1216 14.1734 35.1216 16.0252V16.4809C31.3517 16.4622 28.0239 15.3076 24.9903 13.0579C24.9903 13.2687 24.9903 13.398 24.9903 13.5442C25.0016 18.1592 25.0152 22.7737 25.0311 27.3877C25.0311 29.9026 24.4189 32.2459 23.0007 34.3307C20.6881 37.7316 17.464 39.6021 13.3557 39.9337C13.2146 39.9439 13.0751 39.9762 12.9357 39.9983H12.1569Z" fill="#97716A" fill-opacity="0.8"/>
</svg>
